<svg width="1200" height="900" viewBox="0 0 1200 900" fill="none" xmlns="http://www.w3.org/2000/svg">
  <defs>
    <linearGradient id="sky" x1="140" y1="70" x2="980" y2="760" gradientUnits="userSpaceOnUse">
      <stop stop-color="#F7F3E8"/>
      <stop offset="0.55" stop-color="#E5D6B3"/>
      <stop offset="1" stop-color="#B8C7CE"/>
    </linearGradient>
    <linearGradient id="steel" x1="250" y1="250" x2="860" y2="760" gradientUnits="userSpaceOnUse">
      <stop stop-color="#5F6C72"/>
      <stop offset="1" stop-color="#1F2529"/>
    </linearGradient>
    <linearGradient id="crane" x1="790" y1="160" x2="1030" y2="520" gradientUnits="userSpaceOnUse">
      <stop stop-color="#E97B32"/>
      <stop offset="1" stop-color="#B54B18"/>
    </linearGradient>
  </defs>
  <rect width="1200" height="900" rx="48" fill="url(#sky)"/>
  <circle cx="1000" cy="160" r="80" fill="#FFF7DB" fill-opacity="0.75"/>
  <rect y="640" width="1200" height="260" fill="#5A4738"/>
  <rect y="690" width="1200" height="210" fill="#43352B"/>
  <path d="M120 620L420 360L710 620H120Z" fill="url(#steel)"/>
  <path d="M320 640L630 300L930 640H320Z" fill="#3B4348"/>
  <path d="M560 650L830 400L1080 650H560Z" fill="#2A3135"/>
  <rect x="120" y="590" width="960" height="38" rx="19" fill="#7B8790" fill-opacity="0.52"/>
  <rect x="790" y="150" width="34" height="420" rx="17" fill="url(#crane)"/>
  <rect x="790" y="150" width="220" height="28" rx="14" fill="#D76526"/>
  <rect x="960" y="150" width="24" height="200" rx="12" fill="#C65922"/>
  <path d="M972 350V440" stroke="#2A3135" stroke-width="10" stroke-linecap="round"/>
  <rect x="936" y="440" width="72" height="36" rx="12" fill="#2A3135"/>
  <rect x="220" y="536" width="140" height="24" rx="12" fill="#AAB6BC"/>
  <rect x="412" y="506" width="170" height="28" rx="14" fill="#8B979E"/>
  <rect x="655" y="548" width="125" height="20" rx="10" fill="#BFC8CD"/>
  <rect x="830" y="518" width="155" height="26" rx="13" fill="#939FA7"/>
  <path d="M120 690C230 650 365 632 520 632H1020C1075 632 1125 640 1160 655V900H120V690Z" fill="#3A2F28" fill-opacity="0.48"/>
  <rect x="130" y="708" width="330" height="116" rx="30" fill="#EFE6D3" fill-opacity="0.2"/>
  <text x="180" y="770" fill="#FFF9EE" font-family="Arial, sans-serif" font-size="46" font-weight="700">Metal Yard</text>
  <text x="180" y="818" fill="#F8E8CF" font-family="Arial, sans-serif" font-size="28">Steel, beams, and industrial offcuts</text>
</svg>
