<svg width="1600" height="1100" viewBox="0 0 1600 1100" fill="none" xmlns="http://www.w3.org/2000/svg">
  <defs>
    <linearGradient id="sky" x1="210" y1="70" x2="1360" y2="1010" gradientUnits="userSpaceOnUse">
      <stop stop-color="#FFF7ED"/>
      <stop offset="0.5" stop-color="#FDE68A"/>
      <stop offset="1" stop-color="#E0F2FE"/>
    </linearGradient>
    <linearGradient id="building" x1="390" y1="250" x2="1260" y2="940" gradientUnits="userSpaceOnUse">
      <stop stop-color="#1E293B"/>
      <stop offset="1" stop-color="#7C2D12"/>
    </linearGradient>
    <linearGradient id="glass" x1="470" y1="430" x2="1110" y2="810" gradientUnits="userSpaceOnUse">
      <stop stop-color="#FFFFFF"/>
      <stop offset="1" stop-color="#E2E8F0"/>
    </linearGradient>
    <linearGradient id="awning" x1="420" y1="330" x2="1180" y2="470" gradientUnits="userSpaceOnUse">
      <stop stop-color="#E11D48"/>
      <stop offset="1" stop-color="#FB7185"/>
    </linearGradient>
  </defs>
  <rect width="1600" height="1100" rx="72" fill="url(#sky)"/>
  <circle cx="1180" cy="220" r="140" fill="#FFF7ED" fill-opacity="0.7"/>
  <circle cx="300" cy="820" r="190" fill="#FDA4AF" fill-opacity="0.22"/>
  <circle cx="1380" cy="820" r="170" fill="#BFDBFE" fill-opacity="0.25"/>
  <path d="M140 810C250 720 385 680 560 680H1060C1235 680 1370 720 1480 810V940C1480 982 1446 1016 1404 1016H196C154 1016 120 982 120 940V836C120 826 129 816 140 810Z" fill="#FFFFFF" fill-opacity="0.52"/>
  <path d="M235 745L695 404C753 362 847 362 905 404L1365 745H235Z" fill="url(#building)"/>
  <path d="M300 732V520C300 489 322 462 353 454L800 340L1247 454C1278 462 1300 489 1300 520V732H300Z" fill="#F8FAFC" stroke="#CBD5E1" stroke-width="8"/>
  <path d="M320 486H1280V540H320V486Z" fill="url(#awning)"/>
  <path d="M320 486L370 540H320V486Z" fill="#F8FAFC" fill-opacity="0.85"/>
  <path d="M420 486L470 540H420L370 486H420Z" fill="#FFF7ED" fill-opacity="0.85"/>
  <path d="M520 486L570 540H520L470 486H520Z" fill="#F8FAFC" fill-opacity="0.85"/>
  <path d="M620 486L670 540H620L570 486H620Z" fill="#FFF7ED" fill-opacity="0.85"/>
  <path d="M720 486L770 540H720L670 486H720Z" fill="#F8FAFC" fill-opacity="0.85"/>
  <path d="M820 486L870 540H820L770 486H820Z" fill="#FFF7ED" fill-opacity="0.85"/>
  <path d="M920 486L970 540H920L870 486H920Z" fill="#F8FAFC" fill-opacity="0.85"/>
  <path d="M1020 486L1070 540H1020L970 486H1020Z" fill="#FFF7ED" fill-opacity="0.85"/>
  <path d="M1120 486L1170 540H1120L1070 486H1120Z" fill="#F8FAFC" fill-opacity="0.85"/>
  <path d="M1220 486L1270 540H1220L1170 486H1220Z" fill="#FFF7ED" fill-opacity="0.85"/>
  <rect x="360" y="560" width="180" height="200" rx="20" fill="url(#glass)" stroke="#CBD5E1" stroke-width="6"/>
  <rect x="570" y="560" width="180" height="200" rx="20" fill="url(#glass)" stroke="#CBD5E1" stroke-width="6"/>
  <rect x="780" y="560" width="180" height="200" rx="20" fill="url(#glass)" stroke="#CBD5E1" stroke-width="6"/>
  <rect x="990" y="560" width="180" height="200" rx="20" fill="url(#glass)" stroke="#CBD5E1" stroke-width="6"/>
  <rect x="650" y="680" width="300" height="320" rx="34" fill="#0F172A" stroke="#94A3B8" stroke-width="8"/>
  <rect x="705" y="760" width="190" height="240" rx="22" fill="#FFF7ED"/>
  <rect x="680" y="710" width="240" height="18" rx="9" fill="#FDE68A"/>
  <rect x="470" y="840" width="200" height="26" rx="13" fill="#94A3B8" fill-opacity="0.5"/>
  <rect x="930" y="840" width="200" height="26" rx="13" fill="#94A3B8" fill-opacity="0.5"/>
  <ellipse cx="800" cy="1030" rx="620" ry="32" fill="#334155" fill-opacity="0.24"/>
  <path d="M520 962C560 900 628 862 704 862H896C972 862 1040 900 1080 962" stroke="#7C2D12" stroke-width="16" stroke-linecap="round"/>
  <circle cx="770" cy="805" r="20" fill="#E11D48"/>
  <circle cx="830" cy="805" r="20" fill="#E11D48"/>
  <circle cx="890" cy="805" r="20" fill="#E11D48"/>
  <circle cx="710" cy="805" r="20" fill="#E11D48"/>
  <circle cx="650" cy="805" r="20" fill="#E11D48"/>
  <circle cx="950" cy="805" r="20" fill="#E11D48"/>
  <circle cx="1010" cy="805" r="20" fill="#E11D48"/>
  <circle cx="1070" cy="805" r="20" fill="#E11D48"/>
  <path d="M1060 405C1060 354 1101 313 1152 313C1203 313 1244 354 1244 405C1244 450 1152 545 1152 545C1152 545 1060 450 1060 405Z" fill="#FB7185"/>
  <circle cx="1152" cy="405" r="28" fill="#FFF7ED"/>
  <path d="M245 260C308 231 380 228 444 253" stroke="#EA580C" stroke-width="18" stroke-linecap="round"/>
  <path d="M1120 218C1175 188 1246 181 1316 201" stroke="#0EA5E9" stroke-width="18" stroke-linecap="round"/>
</svg>
